{
  "accessors": [
    {
      "bufferView": 2,
      "componentType": 5126,
      "count": 1600,
      "max": [
        0.84381997585296631,
        0.83736002445220947,
        0.83736002445220947
      ],
      "min": [
        0.82894998788833618,
        -0.83736002445220947,
        -0.83736002445220947
      ],
      "type": "VEC3"
    },
    {
      "bufferView": 2,
      "byteOffset": 19200,
      "componentType": 5126,
      "count": 1600,
      "max": [
        0.99999850988388062,
        0.99910122156143188,
        0.99910122156143188
      ],
      "min": [
        -1.9999977666884661e-05,
        -0.99910122156143188,
        -0.99910122156143188
      ],
      "type": "VEC3"
    },
    {
      "bufferView": 3,
      "componentType": 5126,
      "count": 1600,
      "max": [
        0.99970734119415283,
        0.93165910243988037,
        0.77496552467346191,
        1
      ],
      "min": [
        -0.99983561038970947,
        -0.085809573531150818,
        -0.24812482297420502,
        1
      ],
      "type": "VEC4"
    },
    {
      "bufferView": 0,
      "componentType": 5125,
      "count": 4608,
      "max": [
        1599
      ],
      "min": [
        0
      ],
      "type": "SCALAR"
    },
    {
      "bufferView": 2,
      "byteOffset": 38400,
      "componentType": 5126,
      "count": 1383,
      "max": [
        0.97284001111984253,
        0.83736002445220947,
        0.83736002445220947
      ],
      "min": [
        0.81770998239517212,
        -0.83736002445220947,
        -0.83736002445220947
      ],
      "type": "VEC3"
    },
    {
      "bufferView": 2,
      "byteOffset": 54996,
      "componentType": 5126,
      "count": 1383,
      "max": [
        1,
        0.99910122156143188,
        0.99910122156143188
      ],
      "min": [
        -3.0000002880115062e-05,
        -0.99910122156143188,
        -0.99910122156143188
      ],
      "type": "VEC3"
    },
    {
      "bufferView": 3,
      "byteOffset": 25600,
      "componentType": 5126,
      "count": 1383,
      "max": [
        0.99983060359954834,
        0.92825299501419067,
        0.77397507429122925,
        1
      ],
      "min": [
        -0.99969911575317383,
        -0.085157133638858795,
        -0.24727892875671387,
        1
      ],
      "type": "VEC4"
    },
    {
      "bufferView": 1,
      "componentType": 5126,
      "count": 1383,
      "max": [
        0.98864001035690308,
        0.98864001035690308
      ],
      "min": [
        0.011359999887645245,
        0.011359999887645245
      ],
      "type": "VEC2"
    },
    {
      "bufferView": 0,
      "byteOffset": 18432,
      "componentType": 5125,
      "count": 4608,
      "max": [
        1382
      ],
      "min": [
        0
      ],
      "type": "SCALAR"
    },
    {
      "bufferView": 2,
      "byteOffset": 71592,
      "componentType": 5126,
      "count": 2376,
      "max": [
        0.16220000386238098,
        1.3065500259399414,
        2.3281500339508057
      ],
      "min": [
        -0.1534699946641922,
        -1.3065500259399414,
        -0.47694000601768494
      ],
      "type": "VEC3"
    },
    {
      "bufferView": 2,
      "byteOffset": 100104,
      "componentType": 5126,
      "count": 2376,
      "max": [
        1,
        1,
        1
      ],
      "min": [
        -1,
        -1,
        -1
      ],
      "type": "VEC3"
    },
    {
      "bufferView": 0,
      "byteOffset": 36864,
      "componentType": 5125,
      "count": 6078,
      "max": [
        2375
      ],
      "min": [
        0
      ],
      "type": "SCALAR"
    },
    {
      "bufferView": 2,
      "byteOffset": 128616,
      "componentType": 5126,
      "count": 8012,
      "max": [
        0.32993999123573303,
        1.2580100297927856,
        3.7902600765228271
      ],
      "min": [
        -0.25407001376152039,
        -1.2580000162124634,
        -0.11642000079154968
      ],
      "type": "VEC3"
    },
    {
      "bufferView": 2,
      "byteOffset": 224760,
      "componentType": 5126,
      "count": 8012,
      "max": [
        1,
        1,
        1
      ],
      "min": [
        -1,
        -1,
        -1
      ],
      "type": "VEC3"
    },
    {
      "bufferView": 0,
      "byteOffset": 61176,
      "componentType": 5125,
      "count": 14802,
      "max": [
        8011
      ],
      "min": [
        0
      ],
      "type": "SCALAR"
    },
    {
      "bufferView": 2,
      "byteOffset": 320904,
      "componentType": 5126,
      "count": 3314,
      "max": [
        1.1058399677276611,
        1.1676700115203857,
        1
      ],
      "min": [
        -1,
        -1.1669900417327881,
        -1.0432000160217285
      ],
      "type": "VEC3"
    },
    {
      "bufferView": 2,
      "byteOffset": 360672,
      "componentType": 5126,
      "count": 3314,
      "max": [
        1,
        1,
        1
      ],
      "min": [
        -1,
        -1,
        -1
      ],
      "type": "VEC3"
    },
    {
      "bufferView": 0,
      "byteOffset": 120384,
      "componentType": 5125,
      "count": 8796,
      "max": [
        3313
      ],
      "min": [
        0
      ],
      "type": "SCALAR"
    },
    {
      "bufferView": 2,
      "byteOffset": 400440,
      "componentType": 5126,
      "count": 64,
      "max": [
        0.81840002536773682,
        1.149340033531189,
        0.043969999998807907
      ],
      "min": [
        0.76516002416610718,
        -1.1486599445343018,
        -0.043969999998807907
      ],
      "type": "VEC3"
    },
    {
      "bufferView": 2,
      "byteOffset": 401208,
      "componentType": 5126,
      "count": 64,
      "max": [
        -0,
        1,
        -0
      ],
      "min": [
        -0,
        -1,
        -0
      ],
      "type": "VEC3"
    },
    {
      "bufferView": 0,
      "byteOffset": 155568,
      "componentType": 5125,
      "count": 180,
      "max": [
        63
      ],
      "min": [
        0
      ],
      "type": "SCALAR"
    },
    {
      "bufferView": 2,
      "byteOffset": 401976,
      "componentType": 5126,
      "count": 820,
      "max": [
        1.2366700172424316,
        -0.16911999881267548,
        1.2439700365066528
      ],
      "min": [
        -1.2846800088882446,
        -0.28938001394271851,
        -1.2337900400161743
      ],
      "type": "VEC3"
    },
    {
      "bufferView": 2,
      "byteOffset": 411816,
      "componentType": 5126,
      "count": 820,
      "max": [
        1,
        0.99518156051635742,
        0.99601024389266968
      ],
      "min": [
        -1,
        -0.99518346786499023,
        -0.9960138201713562
      ],
      "type": "VEC3"
    },
    {
      "bufferView": 0,
      "byteOffset": 156288,
      "componentType": 5125,
      "count": 1488,
      "max": [
        819
      ],
      "min": [
        0
      ],
      "type": "SCALAR"
    },
    {
      "bufferView": 2,
      "byteOffset": 421656,
      "componentType": 5126,
      "count": 76,
      "max": [
        0.039870001375675201,
        0,
        0.99607002735137939
      ],
      "min": [
        -0.039870001375675201,
        -2.0334699153900146,
        -1.0039299726486206
      ],
      "type": "VEC3"
    },
    {
      "bufferView": 2,
      "byteOffset": 422568,
      "componentType": 5126,
      "count": 76,
      "max": [
        1,
        1,
        1
      ],
      "min": [
        -1,
        -1,
        -1
      ],
      "type": "VEC3"
    },
    {
      "bufferView": 0,
      "byteOffset": 162240,
      "componentType": 5125,
      "count": 120,
      "max": [
        75
      ],
      "min": [
        0
      ],
      "type": "SCALAR"
    },
    {
      "bufferView": 2,
      "byteOffset": 423480,
      "componentType": 5126,
      "count": 76,
      "max": [
        0.88703000545501709,
        0,
        0.039870001375675201
      ],
      "min": [
        -1.1129699945449829,
        -2.0164499282836914,
        -0.039870001375675201
      ],
      "type": "VEC3"
    },
    {
      "bufferView": 2,
      "byteOffset": 424392,
      "componentType": 5126,
      "count": 76,
      "max": [
        1,
        1,
        1
      ],
      "min": [
        -1,
        -1,
        -1
      ],
      "type": "VEC3"
    },
    {
      "bufferView": 0,
      "byteOffset": 162720,
      "componentType": 5125,
      "count": 120,
      "max": [
        75
      ],
      "min": [
        0
      ],
      "type": "SCALAR"
    },
    {
      "bufferView": 2,
      "byteOffset": 425304,
      "componentType": 5126,
      "count": 76,
      "max": [
        0.039870001375675201,
        0,
        1.0396100282669067
      ],
      "min": [
        -0.039870001375675201,
        -2.0569798946380615,
        -0.96038997173309326
      ],
      "type": "VEC3"
    },
    {
      "bufferView": 2,
      "byteOffset": 426216,
      "componentType": 5126,
      "count": 76,
      "max": [
        1,
        1,
        1
      ],
      "min": [
        -1,
        -1,
        -1
      ],
      "type": "VEC3"
    },
    {
      "bufferView": 0,
      "byteOffset": 163200,
      "componentType": 5125,
      "count": 120,
      "max": [
        75
      ],
      "min": [
        0
      ],
      "type": "SCALAR"
    },
    {
      "bufferView": 2,
      "byteOffset": 427128,
      "componentType": 5126,
      "count": 76,
      "max": [
        0.88822001218795776,
        0,
        0.045219998806715012
      ],
      "min": [
        -1.111780047416687,
        -2.0239500999450684,
        -0.045609999448060989
      ],
      "type": "VEC3"
    },
    {
      "bufferView": 2,
      "byteOffset": 428040,
      "componentType": 5126,
      "count": 76,
      "max": [
        1,
        1,
        1
      ],
      "min": [
        -1,
        -1,
        -1
      ],
      "type": "VEC3"
    },
    {
      "bufferView": 0,
      "byteOffset": 163680,
      "componentType": 5125,
      "count": 120,
      "max": [
        75
      ],
      "min": [
        0
      ],
      "type": "SCALAR"
    },
    {
      "bufferView": 2,
      "byteOffset": 428952,
      "componentType": 5126,
      "count": 64512,
      "max": [
        1.287559986114502,
        0.29864999651908875,
        1.2923400402069092
      ],
      "min": [
        -1.2903100252151489,
        -0.2306399941444397,
        -1.2855299711227417
      ],
      "type": "VEC3"
    },
    {
      "bufferView": 2,
      "byteOffset": 1203096,
      "componentType": 5126,
      "count": 64512,
      "max": [
        1,
        1,
        1
      ],
      "min": [
        -1,
        -1,
        -1
      ],
      "type": "VEC3"
    },
    {
      "bufferView": 0,
      "byteOffset": 164160,
      "componentType": 5125,
      "count": 387072,
      "max": [
        64511
      ],
      "min": [
        0
      ],
      "type": "SCALAR"
    }
  ],
  "asset": {
    "extras": {
      "author": "Mike Rowley (https://sketchfab.com/scrumpy26)",
      "license": "CC-BY-NC-4.0 (http://creativecommons.org/licenses/by-nc/4.0/)",
      "source": "https://sketchfab.com/models/10d9247f691d47158751b8c14971bfcc",
      "title": "Stage Lights Barn Doors"
    },
    "generator": "Sketchfab-3.20.7",
    "version": "2.0"
  },
  "bufferViews": [
    {
      "buffer": 0,
      "byteLength": 1712448,
      "byteOffset": 0,
      "name": "floatBufferViews",
      "target": 34963
    },
    {
      "buffer": 0,
      "byteLength": 11064,
      "byteOffset": 1712448,
      "byteStride": 8,
      "name": "floatBufferViews",
      "target": 34962
    },
    {
      "buffer": 0,
      "byteLength": 1977240,
      "byteOffset": 1723512,
      "byteStride": 12,
      "name": "floatBufferViews",
      "target": 34962
    },
    {
      "buffer": 0,
      "byteLength": 47728,
      "byteOffset": 3700752,
      "byteStride": 16,
      "name": "floatBufferViews",
      "target": 34962
    }
  ],
  "buffers": [
    {
      "byteLength": 3748480,
      "uri": "scene.bin"
    }
  ],
  "images": [
    {
      "uri": "textures/Material.003_baseColor.png"
    }
  ],
  "materials": [
    {
      "doubleSided": true,
      "emissiveFactor": [
        0,
        0,
        0
      ],
      "name": "Material",
      "pbrMetallicRoughness": {
        "baseColorFactor": [
          0.0030822762000000002,
          0.0029595307,
          0.0029595307,
          1
        ],
        "metallicFactor": 0.77000000000000002,
        "roughnessFactor": 0.81999999999999995
      }
    },
    {
      "doubleSided": true,
      "emissiveFactor": [
        0,
        0,
        0
      ],
      "name": "Material.001",
      "pbrMetallicRoughness": {
        "baseColorFactor": [
          0.0027398011000000001,
          0.0026670629999999999,
          0.0026670629999999999,
          1
        ],
        "metallicFactor": 0.93999999999999995,
        "roughnessFactor": 0.93000000000000005
      }
    },
    {
      "doubleSided": true,
      "emissiveFactor": [
        0,
        0,
        0
      ],
      "name": "Material.002",
      "pbrMetallicRoughness": {
        "baseColorFactor": [
          0.35260612689999998,
          0.33899029269999997,
          0.33899029269999997,
          1
        ],
        "metallicFactor": 1,
        "roughnessFactor": 0.029999999999999999
      }
    },
    {
      "alphaMode": "BLEND",
      "doubleSided": true,
      "emissiveFactor": [
        0,
        0,
        0
      ],
      "name": "Material.003",
      "pbrMetallicRoughness": {
        "baseColorFactor": [
          0.97998638100000002,
          0.89664216829999999,
          0.56436014580000005,
          0.73999999999999999
        ],
        "baseColorTexture": {
          "index": 0,
          "texCoord": 0
        },
        "metallicFactor": 1,
        "roughnessFactor": 0.38
      }
    }
  ],
  "meshes": [
    {
      "name": "lens_0",
      "primitives": [
        {
          "attributes": {
            "NORMAL": 1,
            "POSITION": 0,
            "TANGENT": 2
          },
          "indices": 3,
          "material": 2,
          "mode": 4
        }
      ]
    },
    {
      "name": "lens_1",
      "primitives": [
        {
          "attributes": {
            "NORMAL": 5,
            "POSITION": 4,
            "TANGENT": 6,
            "TEXCOORD_0": 7
          },
          "indices": 8,
          "material": 3,
          "mode": 4
        }
      ]
    },
    {
      "name": "hanger_0",
      "primitives": [
        {
          "attributes": {
            "NORMAL": 10,
            "POSITION": 9
          },
          "indices": 11,
          "material": 1,
          "mode": 4
        }
      ]
    },
    {
      "name": "hanger_1",
      "primitives": [
        {
          "attributes": {
            "NORMAL": 13,
            "POSITION": 12
          },
          "indices": 14,
          "material": 2,
          "mode": 4
        }
      ]
    },
    {
      "name": "Cube_0",
      "primitives": [
        {
          "attributes": {
            "NORMAL": 16,
            "POSITION": 15
          },
          "indices": 17,
          "material": 1,
          "mode": 4
        }
      ]
    },
    {
      "name": "Cube_1",
      "primitives": [
        {
          "attributes": {
            "NORMAL": 19,
            "POSITION": 18
          },
          "indices": 20,
          "material": 2,
          "mode": 4
        }
      ]
    },
    {
      "name": "ring_0",
      "primitives": [
        {
          "attributes": {
            "NORMAL": 22,
            "POSITION": 21
          },
          "indices": 23,
          "material": 0,
          "mode": 4
        }
      ]
    },
    {
      "name": "bd left_0",
      "primitives": [
        {
          "attributes": {
            "NORMAL": 25,
            "POSITION": 24
          },
          "indices": 26,
          "material": 0,
          "mode": 4
        }
      ]
    },
    {
      "name": "bd top_0",
      "primitives": [
        {
          "attributes": {
            "NORMAL": 28,
            "POSITION": 27
          },
          "indices": 29,
          "material": 0,
          "mode": 4
        }
      ]
    },
    {
      "name": "bd right_0",
      "primitives": [
        {
          "attributes": {
            "NORMAL": 31,
            "POSITION": 30
          },
          "indices": 32,
          "material": 0,
          "mode": 4
        }
      ]
    },
    {
      "name": "bd bottom_0",
      "primitives": [
        {
          "attributes": {
            "NORMAL": 34,
            "POSITION": 33
          },
          "indices": 35,
          "material": 0,
          "mode": 4
        }
      ]
    },
    {
      "name": "ring.001_0",
      "primitives": [
        {
          "attributes": {
            "NORMAL": 37,
            "POSITION": 36
          },
          "indices": 38,
          "material": 0,
          "mode": 4
        }
      ]
    }
  ],
  "nodes": [
    {
      "children": [
        1
      ],
      "name": "RootNode (gltf orientation matrix)",
      "rotation": [
        -0.70710678118654746,
        -0,
        -0,
        0.70710678118654757
      ]
    },
    {
      "children": [
        2
      ],
      "name": "RootNode (model correction matrix)"
    },
    {
      "children": [
        3,
        5,
        8,
        11,
        14,
        16,
        18,
        20,
        22,
        24,
        26
      ],
      "name": "Root"
    },
    {
      "children": [
        4
      ],
      "matrix": [
        0,
        -0.93681000000000003,
        -0.3498400000000001,
        0,
        1,
        0,
        -0,
        0,
        0,
        -0.3498400000000001,
        0.93681000000000003,
        0,
        -0.44745000000000007,
        -0.6357600000000001,
        1.47685,
        1
      ],
      "name": "Point"
    },
    {
      "name": "Point"
    },
    {
      "children": [
        6,
        7
      ],
      "matrix": [
        0,
        -1.54745,
        -0.57788000000000006,
        0,
        1,
        0,
        -0,
        0,
        0,
        -0.3498400000000001,
        0.93681000000000003,
        0,
        -0.44745000000000007,
        0.30601000000000006,
        1.8285400000000001,
        1
      ],
      "name": "lens"
    },
    {
      "mesh": 0,
      "name": "lens_0"
    },
    {
      "mesh": 1,
      "name": "lens_1"
    },
    {
      "children": [
        9,
        10
      ],
      "matrix": [
        0,
        -1.6518299999999999,
        0.003340000000000001,
        0,
        1,
        0,
        -0,
        0,
        0,
        0.0020200000000000005,
        1,
        0,
        -0.46818000000000004,
        0.45738000000000006,
        2.4523699999999997,
        1
      ],
      "name": "hanger"
    },
    {
      "mesh": 2,
      "name": "hanger_0"
    },
    {
      "mesh": 3,
      "name": "hanger_1"
    },
    {
      "children": [
        12,
        13
      ],
      "matrix": [
        0,
        -1.54745,
        -0.57788000000000006,
        0,
        1,
        0,
        -0,
        0,
        0,
        -0.3498400000000001,
        0.93681000000000003,
        0,
        -0.44745000000000007,
        0.30601000000000006,
        1.8285400000000001,
        1
      ],
      "name": "Cube"
    },
    {
      "mesh": 4,
      "name": "Cube_0"
    },
    {
      "mesh": 5,
      "name": "Cube_1"
    },
    {
      "children": [
        15
      ],
      "matrix": [
        -0.25252999999999998,
        -0.19857000000000002,
        0.94699000000000011,
        0,
        -0.95721000000000001,
        -0.091670000000000029,
        -0.27448000000000006,
        0,
        0.14132,
        -0.97579000000000005,
        -0.16693000000000005,
        0,
        4.0762500000000008,
        -7.5941599999999996,
        4.1041599999999994,
        1
      ],
      "name": "Lamp"
    },
    {
      "name": "Lamp"
    },
    {
      "children": [
        17
      ],
      "matrix": [
        0.7678600000000001,
        0,
        0,
        0,
        0,
        0.71939000000000008,
        0.26850000000000002,
        0,
        0,
        -0.26850000000000002,
        0.71939000000000008,
        0,
        -0.43735000000000007,
        -1.5217899999999998,
        1.1597599999999999,
        1
      ],
      "name": "ring"
    },
    {
      "mesh": 6,
      "name": "ring_0"
    },
    {
      "children": [
        19
      ],
      "matrix": [
        0.79315000000000002,
        0.20040000000000002,
        0.074800000000000005,
        0,
        -0.21391000000000004,
        0.74307000000000012,
        0.27734000000000003,
        0,
        0,
        -0.28725000000000001,
        0.76962000000000019,
        0,
        0.49428000000000005,
        -1.6487400000000001,
        0.99544999999999995,
        1
      ],
      "name": "bd left"
    },
    {
      "mesh": 7,
      "name": "bd left_0"
    },
    {
      "children": [
        21
      ],
      "matrix": [
        0.82147999999999999,
        0,
        0,
        0,
        0,
        0.81996000000000002,
        0.049940000000000005,
        0,
        0,
        -0.049940000000000005,
        0.81996000000000002,
        0,
        -0.38139000000000006,
        -2.0218499999999997,
        1.9950899999999998,
        1
      ],
      "name": "bd top"
    },
    {
      "mesh": 8,
      "name": "bd top_0"
    },
    {
      "children": [
        23
      ],
      "matrix": [
        0.75451000000000001,
        -0.30438000000000009,
        -0.11361000000000002,
        0,
        0.32490000000000008,
        0.70687000000000011,
        0.26383000000000001,
        0,
        0,
        -0.28725000000000001,
        0.76962000000000019,
        0,
        -1.37558,
        -1.7458,
        1.1942400000000002,
        1
      ],
      "name": "bd right"
    },
    {
      "mesh": 9,
      "name": "bd right_0"
    },
    {
      "children": [
        25
      ],
      "matrix": [
        0.82147999999999999,
        0,
        0,
        0,
        0,
        0.66459000000000013,
        0.48286000000000007,
        0,
        0,
        -0.48286000000000007,
        0.66459000000000013,
        0,
        -0.38236000000000009,
        -1.3771100000000001,
        0.25436000000000003,
        1
      ],
      "name": "bd bottom"
    },
    {
      "mesh": 10,
      "name": "bd bottom_0"
    },
    {
      "children": [
        27
      ],
      "matrix": [
        0.7678600000000001,
        0,
        0,
        0,
        0,
        0.71939000000000008,
        0.26850000000000002,
        0,
        0,
        -0.26850000000000002,
        0.71939000000000008,
        0,
        -0.43735000000000007,
        -1.5217899999999998,
        1.1597599999999999,
        1
      ],
      "name": "ring.001"
    },
    {
      "mesh": 11,
      "name": "ring.001_0"
    }
  ],
  "samplers": [
    {
      "magFilter": 9729,
      "minFilter": 9987,
      "wrapS": 10497,
      "wrapT": 10497
    }
  ],
  "scene": 0,
  "scenes": [
    {
      "name": "OSG_Scene",
      "nodes": [
        0
      ]
    }
  ],
  "textures": [
    {
      "sampler": 0,
      "source": 0
    }
  ]
}

