{
  "accessors": [
    {
      "bufferView": 2,
      "componentType": 5126,
      "count": 9904,
      "max": [
        269.701416015625,
        169.04183959960938,
        1003.7021484375
      ],
      "min": [
        -280.595947265625,
        -322.317138671875,
        -1.3780540227890015
      ],
      "type": "VEC3"
    },
    {
      "bufferView": 2,
      "byteOffset": 118848,
      "componentType": 5126,
      "count": 9904,
      "max": [
        1,
        1,
        1
      ],
      "min": [
        -1,
        -1,
        -1
      ],
      "type": "VEC3"
    },
    {
      "bufferView": 3,
      "componentType": 5126,
      "count": 9904,
      "max": [
        1,
        0.99999207258224487,
        1,
        1
      ],
      "min": [
        -1,
        -1,
        -0.99999922513961792,
        -1
      ],
      "type": "VEC4"
    },
    {
      "bufferView": 1,
      "componentType": 5126,
      "count": 9904,
      "max": [
        0.99882400035858154,
        0.99747699499130249
      ],
      "min": [
        0.0027789999730885029,
        0.001888000057078898
      ],
      "type": "VEC2"
    },
    {
      "bufferView": 0,
      "componentType": 5125,
      "count": 44412,
      "max": [
        9903
      ],
      "min": [
        0
      ],
      "type": "SCALAR"
    },
    {
      "bufferView": 2,
      "byteOffset": 237696,
      "componentType": 5126,
      "count": 3901,
      "max": [
        280.8404541015625,
        169.13278198242188,
        1007.1051025390625
      ],
      "min": [
        -198.41180419921875,
        -188.62486267089844,
        -1.3780540227890015
      ],
      "type": "VEC3"
    },
    {
      "bufferView": 2,
      "byteOffset": 284508,
      "componentType": 5126,
      "count": 3901,
      "max": [
        1,
        1,
        1
      ],
      "min": [
        -1,
        -1,
        -1
      ],
      "type": "VEC3"
    },
    {
      "bufferView": 3,
      "byteOffset": 158464,
      "componentType": 5126,
      "count": 3901,
      "max": [
        1,
        0.99999105930328369,
        1,
        1
      ],
      "min": [
        -0.99999856948852539,
        -0.99999994039535522,
        -0.99999010562896729,
        -1
      ],
      "type": "VEC4"
    },
    {
      "bufferView": 1,
      "byteOffset": 79232,
      "componentType": 5126,
      "count": 3901,
      "max": [
        0.99959897994995117,
        0.99682700634002686
      ],
      "min": [
        0.0041180001571774483,
        0.005652999971061945
      ],
      "type": "VEC2"
    },
    {
      "bufferView": 0,
      "byteOffset": 177648,
      "componentType": 5125,
      "count": 17256,
      "max": [
        3900
      ],
      "min": [
        0
      ],
      "type": "SCALAR"
    }
  ],
  "asset": {
    "extras": {
      "author": "Sasi.Datla (https://sketchfab.com/Sasi.Datla)",
      "license": "CC-BY-4.0 (http://creativecommons.org/licenses/by/4.0/)",
      "source": "https://sketchfab.com/3d-models/tripod-final-7018a6ab87024f1d90b58b0cbb6bb39e",
      "title": "Tripod Final"
    },
    "generator": "Sketchfab-6.28.0",
    "version": "2.0"
  },
  "bufferViews": [
    {
      "buffer": 0,
      "byteLength": 246672,
      "byteOffset": 0,
      "name": "floatBufferViews",
      "target": 34963
    },
    {
      "buffer": 0,
      "byteLength": 110440,
      "byteOffset": 246672,
      "byteStride": 8,
      "name": "floatBufferViews",
      "target": 34962
    },
    {
      "buffer": 0,
      "byteLength": 331320,
      "byteOffset": 357112,
      "byteStride": 12,
      "name": "floatBufferViews",
      "target": 34962
    },
    {
      "buffer": 0,
      "byteLength": 220880,
      "byteOffset": 688432,
      "byteStride": 16,
      "name": "floatBufferViews",
      "target": 34962
    }
  ],
  "buffers": [
    {
      "byteLength": 909312,
      "uri": "scene.bin"
    }
  ],
  "images": [
    {
      "uri": "textures/blinn1SG_baseColor.png"
    },
    {
      "uri": "textures/blinn1SG_metallicRoughness.png"
    },
    {
      "uri": "textures/blinn1SG_normal.png"
    }
  ],
  "materials": [
    {
      "doubleSided": true,
      "name": "blinn1SG",
      "normalTexture": {
        "index": 2,
        "scale": 1,
        "texCoord": 0
      },
      "pbrMetallicRoughness": {
        "baseColorFactor": [
          1,
          1,
          1,
          1
        ],
        "baseColorTexture": {
          "index": 0,
          "texCoord": 0
        },
        "metallicFactor": 1,
        "metallicRoughnessTexture": {
          "index": 1,
          "texCoord": 0
        },
        "roughnessFactor": 0.42244664634146339
      }
    }
  ],
  "meshes": [
    {
      "primitives": [
        {
          "attributes": {
            "NORMAL": 1,
            "POSITION": 0,
            "TANGENT": 2,
            "TEXCOORD_0": 3
          },
          "indices": 4,
          "material": 0,
          "mode": 4
        }
      ]
    },
    {
      "primitives": [
        {
          "attributes": {
            "NORMAL": 6,
            "POSITION": 5,
            "TANGENT": 7,
            "TEXCOORD_0": 8
          },
          "indices": 9,
          "material": 0,
          "mode": 4
        }
      ]
    }
  ],
  "nodes": [
    {
      "children": [
        1
      ],
      "name": "RootNode (gltf orientation matrix)",
      "rotation": [
        -0.70710678118654746,
        -0,
        -0,
        0.70710678118654757
      ]
    },
    {
      "children": [
        2
      ],
      "name": "RootNode (model correction matrix)"
    },
    {
      "children": [
        3,
        4
      ],
      "name": "tripod_final.obj.cleaner.materialmerger.gles"
    },
    {
      "mesh": 0,
      "name": ""
    },
    {
      "mesh": 1,
      "name": ""
    }
  ],
  "samplers": [
    {
      "magFilter": 9729,
      "minFilter": 9987,
      "wrapS": 10497,
      "wrapT": 10497
    }
  ],
  "scene": 0,
  "scenes": [
    {
      "name": "OSG_Scene",
      "nodes": [
        0
      ]
    }
  ],
  "textures": [
    {
      "sampler": 0,
      "source": 0
    },
    {
      "sampler": 0,
      "source": 1
    },
    {
      "sampler": 0,
      "source": 2
    }
  ]
}

